<svg width="24" height="24" viewBox="0 0 24 24" fill="none" xmlns="http://www.w3.org/2000/svg">
<path d="M12 11.3881C11.094 9.6271 8.628 6.3441 6.335 4.7261C4.138 3.1761 3.301 3.4431 2.752 3.6931C2.116 3.9781 2 4.9551 2 5.5281C2 6.1031 2.315 10.2371 2.52 10.9281C3.2 13.2081 5.614 13.9781 7.84 13.7311C4.58 14.2141 1.683 15.4011 5.48 19.6291C9.658 23.9541 11.206 18.7021 12 16.0391C12.794 18.7021 13.708 23.7651 18.444 19.6291C22 16.0391 19.421 14.2141 16.161 13.7311C18.386 13.9781 20.801 13.2081 21.48 10.9281C21.685 10.2381 22 6.1031 22 5.5291C22 4.9541 21.884 3.9791 21.248 3.6911C20.699 3.4431 19.862 3.1741 17.665 4.7241C15.372 6.3451 12.905 9.6281 12 11.3881Z" fill="#FF47B6"/>
</svg>
